PathFileType	4	(X/Y/Z)	/tmp/tmpnwx7bfzz/results/MarkerData/JA1Gait35.trc
DataRate	CameraRate	NumFrames	NumMarkers	Units	OrigDataRate	OrigDataStartFrame	OrigNumFrames
250	250	8	53	m	250	241	322
Frame#	Time	C7			LARM			LASI			LELB			LFOREARM			LHEEL			LLEPI			LLMAL			LMFL			LMFS			LP1MT			LP5MT			LPAT			LSH			LTHAD			LTHAP			LTHLD			LTHLP			LTIAD			LTIAP			LTILAT			LTOE			LWR			MAN			P1			P2			P3			RARM			RASI			RELB			RFOREARM			RHEEL			RLEPI			RLMAL			RMFL			RMFS			RP1MT			RP5MT			RPAT			RSH			RTHAD			RTHAP			RTHLD			RTHLP			RTIAD			RTIAP			RTILAT			RTOE			RWR			SACR			T7			x52			x53		
		X1	Y1	Z1	X2	Y2	Z2	X3	Y3	Z3	X4	Y4	Z4	X5	Y5	Z5	X6	Y6	Z6	X7	Y7	Z7	X8	Y8	Z8	X9	Y9	Z9	X10	Y10	Z10	X11	Y11	Z11	X12	Y12	Z12	X13	Y13	Z13	X14	Y14	Z14	X15	Y15	Z15	X16	Y16	Z16	X17	Y17	Z17	X18	Y18	Z18	X19	Y19	Z19	X20	Y20	Z20	X21	Y21	Z21	X22	Y22	Z22	X23	Y23	Z23	X24	Y24	Z24	X25	Y25	Z25	X26	Y26	Z26	X27	Y27	Z27	X28	Y28	Z28	X29	Y29	Z29	X30	Y30	Z30	X31	Y31	Z31	X32	Y32	Z32	X33	Y33	Z33	X34	Y34	Z34	X35	Y35	Z35	X36	Y36	Z36	X37	Y37	Z37	X38	Y38	Z38	X39	Y39	Z39	X40	Y40	Z40	X41	Y41	Z41	X42	Y42	Z42	X43	Y43	Z43	X44	Y44	Z44	X45	Y45	Z45	X46	Y46	Z46	X47	Y47	Z47	X48	Y48	Z48	X49	Y49	Z49	X50	Y50	Z50	X51	Y51	Z51	X52	Y52	Z52	X53	Y53	Z53

242	0.964	3.23251	1.45676	0.242552	3.11276	1.39156	-0.00317379	3.3127	0.969527	0.148476	2.97168	1.37956	-0.0181677	2.89433	1.25174	-0.056581	3.5422	0.155076	0.222367	3.57359	0.651382	0.121934	3.60307	0.191878	0.169804	3.68144	0.160797	0.161665	3.70651	0.203987	0.217153	3.77869	0.16553	0.255788	3.7545	0.125059	0.140608	3.6538	0.708484	0.177787	3.27423	1.44545	0.0677516	3.55538	0.80713	0.162778	3.46024	0.865886	0.162419	3.49505	0.721141	0.0896495	3.39376	0.771403	0.067244	3.62389	0.350171	0.208106	3.62607	0.490296	0.197659	3.58686	0.412424	0.129634	3.7938	0.186235	0.211937	2.80405	1.15591	-0.0760986	3.36754	1.35537	0.213447	3.12733	1.00798	0.210165	3.12987	1.01698	0.314666	3.08777	0.966015	0.264509	3.40413	1.31209	0.484966	3.31969	0.952272	0.361392	3.4808	1.20516	0.533278	3.54769	1.30541	0.455225	2.42663	0.559288	0.284673	2.90146	0.571357	0.383509	2.44094	0.496924	0.34365	2.38296	0.435527	0.350957	2.41754	0.387564	0.304445	2.34988	0.333647	0.258618	2.31308	0.37599	0.371539	2.94888	0.49187	0.332578	3.30196	1.46084	0.386089	3.09	0.589216	0.348034	3.16478	0.658384	0.364855	3.01532	0.662144	0.421036	3.08372	0.750352	0.442335	2.5665	0.48118	0.289988	2.69304	0.495004	0.303755	2.67213	0.550958	0.373435	2.35508	0.31647	0.30555	3.60474	1.39207	0.387496	3.14668	1.03671	0.261384	3.16098	1.26683	0.273858	3.63664	1.44053	0.34962	2.75817	1.10721	-0.0860184
243	0.968	3.27295	1.45876	0.241794	3.15191	1.38859	-0.00321673	3.34924	0.971025	0.149561	3.01124	1.37421	-0.0179031	2.9359	1.24499	-0.0557793	3.60104	0.143644	0.218563	3.60496	0.641757	0.120809	3.66128	0.182707	0.168527	3.74213	0.155028	0.163333	3.76256	0.20118	0.218038	3.83418	0.168643	0.261333	3.81843	0.122702	0.146996	3.68518	0.700029	0.17618	3.31398	1.44548	0.067033	3.58881	0.798203	0.161388	3.4964	0.859475	0.16071	3.52444	0.713998	0.0889223	3.42524	0.768302	0.0663079	3.67151	0.341753	0.207527	3.6642	0.4815	0.198055	3.63386	0.401711	0.127708	3.8501	0.189547	0.217955	2.848	1.14742	-0.0749058	3.40681	1.35593	0.213865	3.16387	1.00832	0.210702	3.16733	1.01667	0.315297	3.12643	0.964469	0.265406	3.43889	1.31113	0.486338	3.35774	0.953733	0.361725	3.51125	1.20116	0.535664	3.58045	1.29888	0.456849	2.47365	0.589946	0.283853	2.94407	0.569394	0.385876	2.48074	0.526304	0.34351	2.41828	0.471144	0.349078	2.44896	0.419704	0.303851	2.37839	0.37209	0.255882	2.3416	0.418024	0.367144	2.98796	0.486286	0.339245	3.34321	1.46227	0.385328	3.13228	0.587014	0.352304	3.20606	0.657684	0.367333	3.05681	0.660307	0.422637	3.12476	0.748836	0.442868	2.60495	0.500459	0.290801	2.73235	0.504304	0.305908	2.71493	0.562863	0.374763	2.38086	0.355314	0.303522	3.63965	1.38353	0.388195	3.18292	1.03737	0.26189	3.19925	1.26842	0.272717	3.67275	1.43087	0.349801	2.80332	1.09784	-0.0846269
244	0.972	3.31326	1.46061	0.241086	3.19123	1.38553	-0.00343112	3.38562	0.97248	0.150314	3.05089	1.36831	-0.0182709	2.97836	1.23722	-0.0552815	3.65649	0.134066	0.215446	3.63644	0.631657	0.119316	3.71589	0.175295	0.167293	3.79879	0.150254	0.164796	3.81521	0.198565	0.218779	3.88567	0.171068	0.266031	3.87737	0.120862	0.152782	3.71664	0.690874	0.174335	3.35369	1.44529	0.0663739	3.62198	0.788757	0.159538	3.5328	0.852896	0.15782	3.55306	0.70478	0.0885972	3.45628	0.7629	0.0662755	3.71664	0.33431	0.207178	3.70113	0.473293	0.198386	3.67789	0.39326	0.125599	3.9026	0.191858	0.223024	2.89334	1.13731	-0.0736716	3.44578	1.35627	0.214388	3.20027	1.00868	0.211847	3.2049	1.01653	0.316644	3.16451	0.963671	0.267059	3.47304	1.30972	0.487939	3.39579	0.95517	0.3619	3.54061	1.19656	0.538178	3.61316	1.291	0.458766	2.52441	0.619692	0.283391	2.9876	0.566513	0.38836	2.52377	0.555241	0.343359	2.45741	0.506808	0.347373	2.48366	0.452205	0.302767	2.41096	0.411431	0.253037	2.37686	0.460765	0.363089	3.02882	0.481085	0.345173	3.38428	1.46327	0.384723	3.17445	0.585763	0.355618	3.24633	0.658065	0.369056	3.09784	0.658848	0.424555	3.16462	0.748421	0.443717	2.6463	0.519608	0.291565	2.77369	0.513601	0.307444	2.75993	0.57315	0.37668	2.41177	0.394477	0.300835	3.67533	1.37304	0.389232	3.21939	1.038	0.26293	3.23718	1.26996	0.271497	3.71009	1.41892	0.350346	2.85013	1.08653	-0.0830184
245	0.976	3.35354	1.46157	0.240369	3.23067	1.38232	-0.00376972	3.42184	0.97387	0.150656	3.09086	1.36186	-0.0190763	3.02181	1.22859	-0.0550662	3.70845	0.125986	0.213782	3.66794	0.621726	0.117665	3.76674	0.16913	0.166432	3.85128	0.145766	0.166231	3.86452	0.195889	0.219247	3.93392	0.172328	0.269431	3.93126	0.118879	0.157528	3.74826	0.681142	0.172469	3.39344	1.4448	0.0657978	3.65528	0.778834	0.157088	3.56928	0.84588	0.154234	3.58202	0.694645	0.0883267	3.4872	0.755721	0.0673992	3.75974	0.328	0.206564	3.73812	0.466234	0.197492	3.71843	0.386546	0.123755	3.95174	0.192782	0.22647	2.94017	1.12581	-0.0725326	3.48455	1.35623	0.215023	3.23655	1.0091	0.213852	3.24247	1.01648	0.31853	3.20211	0.963387	0.269216	3.50664	1.30791	0.489661	3.43374	0.956647	0.361949	3.56911	1.1915	0.540725	3.64576	1.28193	0.460886	2.57865	0.648153	0.283507	3.032	0.562479	0.390946	2.57073	0.583173	0.342678	2.50068	0.541626	0.346094	2.52237	0.484467	0.30158	2.44767	0.451078	0.249825	2.41882	0.50293	0.360136	3.07236	0.476151	0.349222	3.42495	1.46381	0.384426	3.21657	0.585009	0.358157	3.28638	0.658834	0.370574	3.13865	0.657444	0.426564	3.20389	0.748559	0.445032	2.69053	0.538646	0.292008	2.81696	0.5231	0.308234	2.80664	0.582176	0.378679	2.4489	0.433677	0.297599	3.71172	1.36063	0.390598	3.25593	1.03862	0.264636	3.27484	1.27146	0.270302	3.7486	1.40464	0.35129	2.89867	1.07357	-0.08141
246	0.98	3.39368	1.4621	0.239621	3.27026	1.37893	-0.00417784	3.45796	0.975175	0.150638	3.13104	1.3549	-0.0203658	3.06631	1.21917	-0.0551132	3.75662	0.119209	0.213607	3.69934	0.612447	0.115998	3.81372	0.163677	0.166131	3.89951	0.1413	0.167541	3.91066	0.192931	0.219354	3.97949	0.172354	0.27124	3.98023	0.116173	0.160867	3.78031	0.670917	0.170791	3.43321	1.44398	0.0653225	3.68871	0.768441	0.154163	3.60568	0.83826	0.150523	3.61168	0.684446	0.087745	3.51838	0.748043	0.0692788	3.80126	0.322736	0.205181	3.775	0.459988	0.195541	3.75579	0.379989	0.122546	3.99753	0.192464	0.228063	2.98855	1.11317	-0.0715573	3.52318	1.35586	0.215857	3.27287	1.00957	0.215824	3.27977	1.01657	0.320857	3.2395	0.963211	0.271554	3.53978	1.30566	0.491559	3.47165	0.958104	0.361853	3.59691	1.18611	0.543266	3.67815	1.27173	0.463127	2.63569	0.674923	0.284037	3.07709	0.557512	0.39359	2.62116	0.610111	0.342134	2.54808	0.574935	0.344941	2.56485	0.516102	0.300751	2.48885	0.490171	0.246076	2.46462	0.542918	0.358091	3.11787	0.471211	0.351181	3.46534	1.46393	0.384498	3.25882	0.584156	0.360125	3.32683	0.659344	0.372063	3.17944	0.656083	0.428976	3.24341	0.748437	0.44689	2.73731	0.557447	0.291979	2.86212	0.5327	0.30866	2.85476	0.589902	0.38065	2.48988	0.471785	0.293585	3.74867	1.34633	0.39232	3.29253	1.03913	0.266673	3.31228	1.27286	0.269171	3.78811	1.38805	0.352722	2.94903	1.0593	-0.079915
247	0.984	3.43359	1.46238	0.238837	3.31007	1.37524	-0.00470992	3.49399	0.976449	0.15043	3.17149	1.34736	-0.0220491	3.11184	1.20899	-0.0553671	3.80081	0.113288	0.215069	3.73049	0.603872	0.114287	3.85644	0.158233	0.166607	3.94328	0.136628	0.168588	3.95346	0.189587	0.219058	4.02252	0.171375	0.271235	4.02443	0.112494	0.162509	3.81282	0.660288	0.169245	3.47297	1.44287	0.0649493	3.7221	0.757669	0.151152	3.64203	0.830313	0.147145	3.64185	0.674451	0.086733	3.54993	0.740728	0.0704759	3.84102	0.317876	0.20328	3.81109	0.454099	0.193169	3.79045	0.372388	0.122309	4.04009	0.191037	0.227647	3.03856	1.09954	-0.070546	3.56169	1.35522	0.216763	3.30922	1.01	0.217977	3.31667	1.01676	0.323452	3.2768	0.962994	0.27384	3.57252	1.30304	0.493614	3.50951	0.959533	0.36166	3.62407	1.18056	0.545723	3.71049	1.26055	0.465553	2.69473	0.699943	0.284877	3.12272	0.551705	0.396315	2.67431	0.635863	0.342127	2.59898	0.60614	0.343542	2.611	0.546805	0.299131	2.53438	0.527271	0.243695	2.51387	0.580127	0.356429	3.16394	0.466014	0.352073	3.5057	1.46367	0.384899	3.30165	0.582768	0.361816	3.36778	0.659413	0.373494	3.2207	0.654535	0.431688	3.28323	0.748056	0.44898	2.78631	0.576062	0.29111	2.9091	0.54205	0.309045	2.90422	0.596846	0.382409	2.53395	0.508132	0.290144	3.78617	1.33013	0.394469	3.32916	1.03951	0.26877	3.34973	1.27417	0.267884	3.82849	1.36905	0.354717	3.00132	1.04392	-0.0782606
248	0.988	3.47324	1.46241	0.238107	3.35017	1.37103	-0.00546705	3.52992	0.97772	0.150141	3.21243	1.3392	-0.0240185	3.15848	1.19813	-0.0556932	3.84096	0.107776	0.218522	3.76141	0.595715	0.11244	3.89487	0.152216	0.168057	3.98232	0.131352	0.169404	3.99267	0.185633	0.218264	4.06292	0.169514	0.269514	4.06378	0.10765	0.162482	3.8455	0.649522	0.167524	3.51272	1.44153	0.0646679	3.75545	0.746906	0.148445	3.67842	0.822486	0.14436	3.67265	0.664823	0.0858075	3.58168	0.733744	0.0703863	3.87839	0.312763	0.201631	3.84593	0.44817	0.19082	3.82283	0.36387	0.123011	4.07947	0.188308	0.225234	3.09023	1.08513	-0.0693745	3.6002	1.3544	0.217763	3.34559	1.01042	0.220151	3.35348	1.01672	0.325864	3.31391	0.962753	0.275975	3.6049	1.30011	0.495698	3.54732	0.960968	0.361455	3.65055	1.17503	0.548005	3.74278	1.24849	0.46814	2.75491	0.723436	0.285533	3.16861	0.545176	0.398855	2.72958	0.660248	0.342249	2.65257	0.635353	0.3426	2.66076	0.575983	0.29709	2.58341	0.562366	0.241724	2.56626	0.614571	0.35497	3.20973	0.460461	0.352745	3.54603	1.46304	0.38561	3.34525	0.580809	0.363336	3.40927	0.659142	0.374895	3.2631	0.652356	0.434212	3.3233	0.747482	0.450579	2.83756	0.593868	0.290315	2.95784	0.55077	0.309946	2.95496	0.603475	0.383966	2.58123	0.542176	0.287999	3.82398	1.312	0.397091	3.36582	1.03972	0.270822	3.38725	1.27572	0.266531	3.86939	1.34752	0.357358	3.05554	1.0277	-0.076328
249	0.992	3.51266	1.46221	0.237576	3.39053	1.36608	-0.00659062	3.56584	0.979011	0.14987	3.25394	1.33036	-0.0263058	3.20618	1.18662	-0.0560444	3.87733	0.102512	0.224248	3.79214	0.587711	0.110604	3.92926	0.145516	0.170693	4.01677	0.125124	0.170125	4.02836	0.180741	0.216993	4.10044	0.166521	0.266299	4.09818	0.101305	0.161062	3.87806	0.639225	0.165314	3.55243	1.43995	0.0644024	3.78899	0.736777	0.146291	3.71467	0.815325	0.141963	3.70367	0.655988	0.0853999	3.61337	0.726976	0.0696701	3.91301	0.30717	0.201184	3.87927	0.441942	0.188984	3.85351	0.355306	0.124119	4.11539	0.183852	0.221003	3.14336	1.0703	-0.0682444	3.63885	1.35331	0.218835	3.38195	1.01078	0.222252	3.39041	1.01636	0.327879	3.3509	0.96245	0.277834	3.63695	1.29692	0.497678	3.5851	0.962312	0.361259	3.67644	1.16962	0.55011	3.77494	1.23558	0.470864	2.81591	0.745535	0.286145	3.21485	0.538471	0.401099	2.78663	0.683198	0.342235	2.70844	0.662733	0.342082	2.71355	0.603382	0.294917	2.63567	0.594758	0.239936	2.6213	0.646411	0.353874	3.2553	0.454698	0.35354	3.58619	1.46213	0.386574	3.3895	0.578382	0.364639	3.45135	0.658438	0.376255	3.30668	0.649231	0.436061	3.36377	0.746351	0.451339	2.8907	0.610512	0.289627	3.00797	0.558795	0.310884	3.00691	0.609799	0.385217	2.63184	0.573832	0.286971	3.86183	1.29199	0.400236	3.40247	1.03985	0.272907	3.42444	1.27732	0.265715	3.91042	1.32354	0.360738	3.11143	1.01119	-0.0744451
